<?xml version="1.0" encoding="UTF-8" standalone="no"?>
<!-- Generator: Adobe Illustrator 22.0.1, SVG Export Plug-In . SVG Version: 6.00 Build 0)  -->

<svg
   version="1.1"
   id="Layer_1"
   x="0px"
   y="0px"
   viewBox="0 0 300 300"
   style="enable-background:new 0 0 300 300;"
   xml:space="preserve"
   sodipodi:docname="SocioeconomicsofClimateChange_Sloane_Garelick.svg"
   inkscape:version="1.3.2 (091e20e, 2023-11-25)"
   xmlns:inkscape="http://www.inkscape.org/namespaces/inkscape"
   xmlns:sodipodi="http://sodipodi.sourceforge.net/DTD/sodipodi-0.dtd"
   xmlns="http://www.w3.org/2000/svg"
   xmlns:svg="http://www.w3.org/2000/svg"><defs
   id="defs66"><rect
     x="33.050847"
     y="38.135593"
     width="254.23729"
     height="72.457627"
     id="rect66" /></defs><sodipodi:namedview
   id="namedview66"
   pagecolor="#ffffff"
   bordercolor="#000000"
   borderopacity="0.25"
   inkscape:showpageshadow="2"
   inkscape:pageopacity="0.0"
   inkscape:pagecheckerboard="0"
   inkscape:deskcolor="#d1d1d1"
   inkscape:zoom="0.78666667"
   inkscape:cx="150"
   inkscape:cy="150"
   inkscape:window-width="1280"
   inkscape:window-height="449"
   inkscape:window-x="0"
   inkscape:window-y="23"
   inkscape:window-maximized="0"
   inkscape:current-layer="Layer_1" />
<style
   type="text/css"
   id="style1">
	.st0{fill:#B0C7DC;}
	.st1{enable-background:new    ;}
	.st2{fill:none;stroke:#231F20;stroke-width:2.5;stroke-miterlimit:10;}
	.st3{fill:none;stroke:#231F20;stroke-width:3;stroke-miterlimit:10;}
</style>
<rect
   x="11.4"
   y="18.5"
   class="st0"
   width="277.2"
   height="261.3"
   id="rect1" />

<circle
   class="st2"
   cx="164.4"
   cy="219.2"
   r="17.6"
   id="circle30" />
<line
   class="st2"
   x1="90.4"
   y1="201.6"
   x2="120.4"
   y2="201.6"
   id="line30" />
<line
   class="st2"
   x1="90.4"
   y1="254.6"
   x2="90.4"
   y2="200.4"
   id="line31" />
<line
   class="st2"
   x1="120.4"
   y1="236.7"
   x2="151.5"
   y2="236.7"
   id="line32" />
<line
   class="st2"
   x1="151.5"
   y1="254.3"
   x2="151.5"
   y2="235.6"
   id="line33" />
<line
   class="st2"
   x1="120.4"
   y1="200.5"
   x2="120.4"
   y2="237.9"
   id="line34" />
<line
   class="st2"
   x1="164.4"
   y1="219.2"
   x2="164.4"
   y2="254.3"
   id="line35" />
<line
   class="st2"
   x1="83.3"
   y1="254.3"
   x2="224.3"
   y2="254.3"
   id="line36" />
<path
   class="st2"
   d="M174.6,147h26.1h4.2c0.4,0.1,0.9,0.1,1.5,0c3-0.5,4.5-4.2,4.6-4.6c0.2-0.6,1.6-4.6-1-7.8  c-1.5-1.9-4-2.9-6.3-2.7c-1.3,0.1-2.4,0.6-3,1c0.1-1,0.2-2.5-0.3-4.2c-1.7-5.5-7.9-7.3-8.8-7.6c-1.3-0.4-6.2-1.7-10.4,1.4  c-3.7,2.7-4.4,6.9-4.5,7.8c-0.7-0.3-1.7-0.7-3.1-0.6c-4.4,0.2-6.7,5.2-6.8,5.5c-0.3,0.6-1.8,4.2,0,7.8c1.2,2.3,3.1,3.4,3.8,3.7  L174.6,147z"
   id="path36" />
<rect
   x="187.4"
   y="183.6"
   class="st2"
   width="27.8"
   height="70.7"
   id="rect36" />
<circle
   class="st2"
   cx="113.3"
   cy="144"
   r="10.2"
   id="circle36" />
<line
   class="st2"
   x1="113.3"
   y1="128.8"
   x2="113.3"
   y2="119.9"
   id="line37" />
<line
   class="st2"
   x1="113.3"
   y1="168"
   x2="113.3"
   y2="159.1"
   id="line38" />
<line
   class="st2"
   x1="137.4"
   y1="144"
   x2="128.4"
   y2="144"
   id="line39" />
<line
   class="st2"
   x1="129.8"
   y1="127.5"
   x2="123.5"
   y2="133.8"
   id="line40" />
<line
   class="st2"
   x1="130.2"
   y1="160.5"
   x2="123.9"
   y2="154.2"
   id="line41" />
<line
   class="st2"
   x1="89.2"
   y1="144"
   x2="98.1"
   y2="144"
   id="line42" />
<line
   class="st2"
   x1="96.7"
   y1="127.5"
   x2="103.1"
   y2="133.8"
   id="line43" />
<line
   class="st2"
   x1="96.3"
   y1="160.5"
   x2="102.6"
   y2="154.2"
   id="line44" />
<g
   id="g44">
	<path
   class="st3"
   d="M93.6,173.2c2,1.4,3.7,3.2,3.4,5c-0.2,1.4-2.1,2.4-3,3.6c-2.1,3,4.8,4.9,2.4,7.9c-1.2,1.5-3.4,2.5-2.8,4.2"
   id="path44" />
</g>
<g
   id="g45">
	<path
   class="st3"
   d="M109.8,173.2c2,1.4,3.7,3.2,3.4,5c-0.2,1.4-2.1,2.4-3,3.6c-2.1,3,4.8,4.9,2.4,7.9c-1.2,1.5-3.4,2.5-2.8,4.2"
   id="path45" />
</g>
<g
   id="g46">
	<path
   class="st3"
   d="M191.9,157.3c2,1.4,3.7,3.2,3.4,5c-0.2,1.4-2.1,2.4-3,3.6c-2.1,3,4.8,4.9,2.4,7.9c-1.2,1.5-3.4,2.5-2.8,4.2"
   id="path46" />
</g>
<g
   id="g47">
	<path
   class="st3"
   d="M208.1,157.3c2,1.4,3.7,3.2,3.4,5c-0.2,1.4-2.1,2.4-3,3.6c-2.1,3,4.8,4.9,2.4,7.9c-1.2,1.5-3.4,2.5-2.8,4.2"
   id="path47" />
</g>
<g
   id="g48">
	<path
   class="st3"
   d="M144.8,183.6c2,1.4,3.7,3.2,3.4,5c-0.2,1.4-2.1,2.4-3,3.6c-2.1,3,4.8,4.9,2.4,7.9c-1.2,1.5-3.4,2.5-2.8,4.2"
   id="path48" />
</g>
<g
   id="g49">
	<path
   class="st3"
   d="M176.8,179.6c2,1.4,3.7,3.2,3.4,5c-0.2,1.4-2.1,2.4-3,3.6c-2.1,3,4.8,4.9,2.4,7.9c-1.2,1.5-3.4,2.5-2.8,4.2"
   id="path49" />
</g>
<g
   id="g50">
	<path
   class="st3"
   d="M162.7,173.2c2,1.4,3.7,3.2,3.4,5c-0.2,1.4-2.1,2.4-3,3.6c-2.1,3,4.8,4.9,2.4,7.9c-1.2,1.5-3.4,2.5-2.8,4.2"
   id="path50" />
</g>
<g
   id="g51">
	<path
   class="st3"
   d="M129.4,208.6c2,1.4,3.7,3.2,3.4,5c-0.2,1.4-2.1,2.4-3,3.6c-2.1,3,4.8,4.9,2.4,7.9c-1.2,1.5-3.4,2.5-2.8,4.2"
   id="path51" />
</g>
<line
   class="st3"
   x1="98.9"
   y1="208.6"
   x2="112.5"
   y2="208.6"
   id="line51" />
<line
   class="st3"
   x1="98.9"
   y1="218.1"
   x2="112.5"
   y2="218.1"
   id="line52" />
<line
   class="st3"
   x1="98.9"
   y1="226.7"
   x2="112.5"
   y2="226.7"
   id="line53" />
<line
   class="st3"
   x1="98.9"
   y1="236.2"
   x2="112.5"
   y2="236.2"
   id="line54" />
<line
   class="st3"
   x1="194.4"
   y1="190"
   x2="208.1"
   y2="190"
   id="line55" />
<line
   class="st3"
   x1="194.4"
   y1="199.4"
   x2="208.1"
   y2="199.4"
   id="line56" />
<line
   class="st3"
   x1="194.4"
   y1="208.1"
   x2="208.1"
   y2="208.1"
   id="line57" />
<line
   class="st3"
   x1="194.4"
   y1="217.6"
   x2="208.1"
   y2="217.6"
   id="line58" />
<line
   class="st3"
   x1="98.6"
   y1="245.3"
   x2="112.2"
   y2="245.3"
   id="line59" />
<line
   class="st3"
   x1="119.6"
   y1="245.3"
   x2="123"
   y2="245.3"
   id="line60" />
<line
   class="st3"
   x1="194.4"
   y1="227.2"
   x2="208.1"
   y2="227.2"
   id="line61" />
<line
   class="st3"
   x1="194.4"
   y1="235.8"
   x2="208.1"
   y2="235.8"
   id="line62" />
<line
   class="st3"
   x1="194.4"
   y1="245.3"
   x2="208.1"
   y2="245.3"
   id="line63" />
<line
   class="st3"
   x1="126.7"
   y1="245.3"
   x2="130.1"
   y2="245.3"
   id="line64" />
<line
   class="st3"
   x1="133.8"
   y1="245.3"
   x2="137.2"
   y2="245.3"
   id="line65" />
<line
   class="st3"
   x1="141.2"
   y1="245.3"
   x2="144.6"
   y2="245.3"
   id="line66" />
<text
   xml:space="preserve"
   id="text66"
   style="font-weight:bold;font-size:21.3333px;font-family:sans-serif;-inkscape-font-specification:'sans-serif Bold';text-align:center;white-space:pre;shape-inside:url(#rect66);fill:#000000"
   transform="translate(-10.169492)"><tspan
     x="39.284696"
     y="57.597782"
     id="tspan1">The Socioeconomics </tspan><tspan
     x="51.102386"
     y="84.264408"
     id="tspan2">of Climate Change</tspan></text></svg>
